<?xml version="1.0" standalone="no"?>
<!DOCTYPE svg PUBLIC "-//W3C//DTD SVG 20010904//EN"
 "http://www.w3.org/TR/2001/REC-SVG-20010904/DTD/svg10.dtd">
<svg version="1.0" xmlns="http://www.w3.org/2000/svg"
 width="530.000000pt" height="470.000000pt" viewBox="0 0 530.000000 470.000000"
 preserveAspectRatio="xMidYMid meet">

<g transform="translate(0.000000,470.000000) scale(0.100000,-0.100000)"
fill="#000000" stroke="none">
<path d="M3085 4043 c-11 -3 -31 -15 -45 -26 -20 -18 -22 -18 -10 -3 13 17 13
19 0 14 -18 -6 -20 -44 -2 -40 14 2 16 -14 2 -23 -5 -3 -10 -1 -10 5 0 6 -5 8
-10 5 -7 -4 -4 -13 7 -23 11 -10 18 -30 17 -49 -1 -26 3 -33 18 -33 10 0 18 5
18 11 0 5 4 8 9 4 5 -3 35 4 65 16 31 11 60 18 66 14 23 -14 6 -34 -47 -54
-53 -20 -181 -90 -141 -77 10 3 20 1 23 -4 4 -6 -4 -10 -17 -10 -18 0 -20 -2
-8 -10 13 -9 13 -10 0 -10 -11 -1 -10 -4 5 -16 14 -11 16 -18 8 -21 -7 -3 -13
-9 -13 -15 0 -24 89 0 146 38 106 71 151 189 94 249 -44 47 -121 73 -175 58z"/>
<path d="M1003 3824 c-32 -8 -73 -50 -73 -76 0 -13 -9 -47 -20 -76 -23 -61
-26 -122 -6 -160 8 -15 35 -47 59 -71 38 -36 52 -44 84 -44 49 1 110 18 151
43 33 20 33 21 26 76 -6 51 -5 56 12 52 11 -2 23 -16 29 -36 5 -17 12 -32 16
-32 11 0 18 80 9 109 -8 27 -6 29 29 35 53 8 86 49 93 116 l3 35 -70 12 c-78
13 -308 24 -342 17z"/>
<path d="M3570 3699 c-58 -5 -48 -6 48 -3 94 2 122 0 122 -10 0 -7 -14 -51
-31 -97 -17 -46 -33 -93 -37 -103 -4 -17 -10 -13 -42 24 l-37 44 -52 -37 c-28
-20 -55 -37 -60 -37 -5 0 -24 18 -42 40 -18 22 -38 40 -44 39 -5 0 -4 -3 3 -6
6 -2 12 -9 12 -14 0 -6 -4 -8 -9 -4 -5 3 -13 0 -17 -6 -4 -8 -3 -9 4 -5 7 4
12 4 13 -1 0 -4 2 -42 5 -83 3 -41 7 -81 9 -87 3 -9 34 -13 109 -13 97 0 106
2 120 22 9 12 16 29 16 38 1 8 9 33 20 55 11 22 19 44 20 49 0 6 14 47 31 93
17 45 29 89 26 98 -7 16 -47 17 -187 4z m-146 -185 c3 -8 2 -12 -4 -9 -6 3
-10 10 -10 16 0 14 7 11 14 -7z"/>
<path d="M4131 3685 c20 -21 156 -28 328 -18 93 6 136 12 139 21 3 9 -49 12
-239 12 -218 0 -242 -2 -228 -15z"/>
<path d="M3418 3683 c7 -3 16 -2 19 1 4 3 -2 6 -13 5 -11 0 -14 -3 -6 -6z"/>
<path d="M3458 3683 c7 -3 16 -2 19 1 4 3 -2 6 -13 5 -11 0 -14 -3 -6 -6z"/>
<path d="M3765 3619 c-31 -104 -101 -288 -117 -305 -17 -19 -34 -21 -211 -28
-105 -4 -198 -8 -204 -9 -9 0 -10 -4 -2 -14 16 -19 -1 -16 -24 5 -19 16 -20
16 -9 -4 10 -19 9 -23 -14 -28 -17 -5 -24 -12 -22 -24 4 -20 45 -25 45 -6 0 8
-5 14 -11 14 -6 0 -3 5 6 11 24 14 518 25 518 12 0 -7 -80 -13 -217 -17 -232
-8 -286 -13 -277 -27 3 -5 106 -7 247 -3 169 5 239 3 232 -4 -6 -6 -88 -13
-195 -17 -102 -4 -213 -10 -248 -14 -60 -7 -65 -6 -93 20 -30 28 -41 23 -12
-6 13 -14 14 -21 5 -36 -10 -15 -9 -17 3 -13 8 4 15 14 15 23 0 12 2 13 9 3 6
-11 56 -12 254 -7 155 5 247 4 247 -2 0 -10 -145 -23 -265 -23 -104 0 -205
-12 -205 -23 0 -7 76 -8 225 -3 133 4 225 3 225 -2 0 -11 -120 -22 -264 -23
-61 0 -136 -4 -166 -8 -32 -5 -63 -5 -73 1 -18 9 -18 10 0 31 15 18 13 18 -10
-2 -28 -25 -32 -32 -19 -30 21 4 24 -3 6 -17 -10 -8 -14 -13 -7 -10 18 9 513
14 519 5 7 -11 -63 -18 -245 -22 -124 -3 -165 -8 -172 -18 -6 -10 -9 -11 -9
-1 0 6 -4 12 -10 12 -5 0 -10 -6 -10 -13 0 -18 -29 -20 -238 -21 -180 -1 -183
-1 -160 -20 22 -17 42 -18 358 -15 293 4 335 2 335 -11 0 -22 -134 -28 -672
-29 -380 -2 -453 -4 -463 -17 -11 -12 59 -14 532 -14 300 0 566 3 592 6 41 6
47 10 54 38 l8 31 116 0 c64 0 114 4 111 9 -3 4 5 5 18 2 21 -6 22 -6 6 5 -14
8 -22 8 -30 0 -6 -6 -16 -11 -22 -11 -5 1 1 10 14 20 13 11 18 20 12 20 -18 0
-13 25 29 135 22 58 40 114 40 125 0 35 -38 51 -107 44 -35 -4 -63 -4 -63 0 0
4 25 79 57 167 40 113 53 163 46 170 -8 8 -13 4 -18 -12z m-575 -409 c0 -5 -4
-10 -10 -10 -5 0 -10 5 -10 10 0 6 5 10 10 10 6 0 10 -4 10 -10z"/>
<path d="M4232 3633 c-19 -4 -21 -7 -11 -19 10 -12 9 -13 -4 -8 -16 6 -17 -5
-2 -39 4 -10 3 -29 -3 -42 -9 -18 -8 -23 3 -21 23 3 25 10 16 44 -5 18 -6 32
-2 32 3 0 15 14 24 30 10 17 15 29 10 29 -4 -1 -18 -4 -31 -6z"/>
<path d="M3115 3624 c-16 -2 -158 -8 -313 -13 -179 -6 -289 -14 -297 -21 -7
-6 -18 -24 -24 -40 l-10 -29 45 6 c41 5 44 4 44 -18 -1 -28 -104 -327 -118
-341 -6 -6 -98 -10 -227 -10 -164 1 -215 -2 -212 -11 2 -8 53 -14 162 -19 87
-4 159 -9 161 -11 2 -2 -2 -21 -9 -43 l-14 -39 -139 -3 c-86 -2 -142 -7 -149
-14 -7 -8 -5 -9 8 -5 12 5 16 3 11 -4 -4 -8 1 -9 17 -4 18 5 21 4 9 -4 -8 -6
-24 -8 -35 -6 -11 3 -14 2 -6 -1 11 -5 11 -8 0 -16 -11 -8 -10 -8 4 -4 23 7
61 -17 75 -50 7 -14 9 -42 6 -62 -5 -34 -2 -41 28 -68 18 -16 46 -44 62 -61
25 -28 27 -35 16 -48 -12 -15 -10 -16 20 -13 31 3 36 8 58 63 54 138 102 281
97 292 -2 7 -14 13 -25 13 -23 0 -24 3 -8 48 12 32 15 33 53 30 51 -6 68 -11
77 -23 4 -6 8 -2 8 9 0 13 -5 16 -16 12 -15 -6 -15 -4 -3 10 8 10 15 12 17 5
2 -6 9 -8 15 -4 7 4 8 0 3 -13 -5 -10 -11 -27 -13 -36 -3 -10 -9 -15 -14 -12
-5 3 -9 -11 -9 -31 0 -22 4 -34 10 -30 6 4 7 11 4 17 -4 7 -2 8 4 4 7 -4 10
-24 8 -46 -2 -23 1 -41 7 -44 9 -3 8 -5 0 -5 -14 -1 -18 -21 -5 -21 5 0 30 56
56 125 27 68 52 122 57 119 5 -3 6 1 3 9 -3 8 6 26 19 41 22 24 30 26 121 27
53 1 99 5 102 10 3 6 -38 7 -102 3 -100 -5 -106 -4 -101 13 9 31 107 307 110
309 1 0 123 7 272 15 243 13 270 16 273 32 3 15 -5 17 -80 15 -46 0 -96 -3
-113 -4z"/>
<path d="M3359 3533 c-13 -16 -12 -17 4 -4 16 13 21 21 13 21 -2 0 -10 -8 -17
-17z"/>
<path d="M2992 3194 c-31 -21 -29 -43 4 -36 15 3 29 -1 34 -8 6 -9 11 -7 20 9
9 17 9 26 -1 37 -15 18 -29 18 -57 -2z"/>
<path d="M3106 3167 c3 -10 9 -15 12 -12 3 3 0 11 -7 18 -10 9 -11 8 -5 -6z"/>
<path d="M3190 3099 c0 -5 5 -7 10 -4 6 3 10 8 10 11 0 2 -4 4 -10 4 -5 0 -10
-5 -10 -11z"/>
<path d="M2947 3089 c7 -7 15 -10 18 -7 3 3 -2 9 -12 12 -14 6 -15 5 -6 -5z"/>
<path d="M2996 3084 c-19 -19 -21 -43 -3 -40 37 7 57 19 57 37 0 24 -32 26
-54 3z"/>
<path d="M3160 2999 c0 -5 5 -7 10 -4 6 3 10 8 10 11 0 2 -4 4 -10 4 -5 0 -10
-5 -10 -11z"/>
<path d="M3980 3002 c-69 -1 -132 -5 -140 -9 -8 -3 -22 -5 -30 -4 -11 1 -10
-2 4 -13 16 -13 17 -18 6 -31 -7 -8 -20 -15 -29 -16 -11 0 -9 -3 7 -9 12 -5
22 -14 22 -20 0 -6 -4 -8 -10 -5 -5 3 -10 1 -10 -4 0 -6 9 -11 20 -11 26 0 72
29 64 41 -3 5 1 6 9 3 8 -3 20 2 27 11 22 27 43 19 37 -14 -8 -37 3 -102 15
-95 5 4 7 16 4 28 -4 15 1 24 19 32 18 9 25 9 29 0 2 -6 5 -3 5 7 2 31 21 8
21 -25 0 -34 -38 -108 -55 -108 -15 0 -45 37 -37 45 4 4 -5 1 -19 -5 -17 -8
-30 -25 -37 -49 -6 -20 -18 -45 -25 -55 -13 -18 -15 -17 -36 18 -20 32 -36 40
-36 18 0 -4 -4 -14 -10 -22 -7 -13 -6 -13 7 -2 11 9 18 10 23 2 3 -5 2 -10 -4
-10 -5 0 -8 -13 -6 -30 l4 -30 -117 0 c-100 0 -114 -2 -102 -14 20 -18 445
-30 458 -12 5 6 35 86 66 177 48 138 56 170 47 188 -7 12 -15 21 -19 22 -30 3
-63 4 -172 1z"/>
<path d="M2468 2955 c-3 -16 -1 -25 7 -25 8 0 10 9 7 25 -2 14 -6 25 -7 25 -1
0 -5 -11 -7 -25z"/>
<path d="M260 2798 c0 -7 4 -49 10 -93 5 -44 23 -199 40 -345 17 -146 42 -353
54 -460 24 -211 36 -249 86 -275 42 -22 57 -23 473 -24 l377 -1 0 -55 c0 -33
-5 -57 -13 -62 -20 -13 3 -425 25 -450 9 -10 18 -34 20 -53 l3 -35 112 -18
112 -17 73 38 c40 21 74 45 76 54 4 20 -43 35 -140 44 l-68 7 0 258 c0 141 3
264 6 273 5 13 26 16 125 16 l119 0 0 35 0 34 -250 3 c-301 4 -287 -3 -306
135 -81 575 -125 864 -134 888 -16 42 -48 74 -95 96 -36 17 -71 19 -372 19
-260 0 -333 -3 -333 -12z"/>
<path d="M1985 2800 c-3 -5 0 -12 6 -16 8 -4 9 -3 5 4 -4 7 -1 12 9 12 10 0
13 -5 9 -12 -4 -7 -3 -8 4 -4 9 5 12 -7 12 -39 0 -33 4 -47 17 -52 15 -6 15
-7 -3 -14 -11 -4 16 -8 66 -8 l84 -1 -42 43 c-23 23 -42 48 -42 53 0 23 -36
43 -78 42 -23 0 -45 -4 -47 -8z"/>
<path d="M4268 2583 c7 -3 16 -2 19 1 4 3 -2 6 -13 5 -11 0 -14 -3 -6 -6z"/>
<path d="M3815 2560 c-3 -6 1 -7 9 -4 18 7 21 14 7 14 -6 0 -13 -4 -16 -10z"/>
<path d="M3890 2520 c8 -5 20 -10 25 -10 6 0 3 5 -5 10 -8 5 -19 10 -25 10 -5
0 -3 -5 5 -10z"/>
<path d="M2438 2513 c7 -3 16 -2 19 1 4 3 -2 6 -13 5 -11 0 -14 -3 -6 -6z"/>
<path d="M2478 2513 c7 -3 16 -2 19 1 4 3 -2 6 -13 5 -11 0 -14 -3 -6 -6z"/>
<path d="M2533 2513 c15 -2 39 -2 55 0 15 2 2 4 -28 4 -30 0 -43 -2 -27 -4z"/>
<path d="M2900 2510 c157 -3 279 -6 271 -8 -8 -1 -22 -8 -30 -16 -22 -19 -61
-30 -61 -17 0 6 9 11 19 11 11 0 22 4 25 9 8 12 -306 12 -325 0 -9 -5 30 -8
103 -7 65 1 120 0 123 -3 7 -7 -15 -9 -95 -9 -36 0 -72 -4 -80 -10 -10 -6 48
-9 173 -8 103 0 190 -2 194 -6 3 -3 -5 -6 -18 -6 -13 -1 -35 -7 -49 -15 -32
-19 -49 -19 -24 -1 17 13 -2 14 -151 15 -173 0 -210 -4 -200 -19 3 -5 -3 -13
-12 -19 -10 -6 -13 -11 -7 -11 5 0 15 5 21 11 7 7 29 13 50 13 21 1 47 6 58
10 19 7 18 6 -2 -12 l-21 -19 40 0 c39 0 39 1 17 13 -13 7 -19 13 -14 14 6 0
20 -7 33 -15 17 -13 48 -16 140 -14 129 1 114 -4 282 101 l45 28 -395 -2 -395
-3 285 -5z m380 -8 c-8 -4 -28 -15 -43 -26 -15 -10 -30 -16 -34 -13 -3 4 7 12
23 19 l28 13 -34 6 c-29 5 -26 6 20 7 30 0 48 -2 40 -6z m70 3 c0 -7 -140 -95
-152 -95 -7 0 19 19 58 42 38 23 71 45 72 50 4 8 22 12 22 3z m-323 -88 c0 -7
-8 -13 -18 -13 -13 0 -15 3 -7 13 6 7 14 13 18 13 3 0 7 -6 7 -13z"/>
<path d="M2380 2488 c0 -4 4 -8 9 -8 6 0 12 4 15 8 3 5 -1 9 -9 9 -8 0 -15 -4
-15 -9z"/>
<path d="M2475 2490 c-2 -3 9 -6 25 -5 15 0 26 3 24 7 -5 8 -44 6 -49 -2z"/>
<path d="M2575 2489 c-14 -5 -7 -8 25 -8 25 0 52 4 60 9 18 12 -54 11 -85 -1z"/>
<path d="M2690 2490 c-11 -7 -4 -10 25 -10 22 0 47 5 55 10 11 7 4 10 -25 10
-22 0 -47 -5 -55 -10z"/>
<path d="M2508 2458 c-8 -5 3 -8 29 -8 23 0 44 4 47 8 7 11 -59 11 -76 0z"/>
<path d="M2620 2460 c-7 -4 30 -8 87 -8 54 0 105 3 113 8 7 4 -30 8 -87 8 -54
0 -105 -3 -113 -8z"/>
<path d="M2440 2430 c-8 -5 -10 -10 -5 -10 6 0 17 5 25 10 8 5 11 10 5 10 -5
0 -17 -5 -25 -10z"/>
<path d="M2580 2429 c0 -4 20 -7 44 -6 24 1 39 5 33 9 -15 9 -77 7 -77 -3z"/>
<path d="M2680 2430 c0 -13 50 -13 70 0 11 7 4 10 -27 10 -24 0 -43 -4 -43
-10z"/>
<path d="M2548 2423 c7 -3 16 -2 19 1 4 3 -2 6 -13 5 -11 0 -14 -3 -6 -6z"/>
<path d="M3333 2367 c41 -51 70 -103 119 -216 11 -25 35 -107 54 -181 18 -74
38 -136 44 -138 5 -2 7 -9 4 -15 -4 -7 -1 -6 7 2 11 10 11 15 2 18 -16 6 -17
23 -3 23 6 0 15 -10 21 -22 8 -20 9 -19 5 9 -4 22 -2 32 6 30 37 -7 -1 130
-78 283 -64 126 -126 207 -184 239 l-42 24 45 -56z"/>
<path d="M2798 2393 c7 -3 16 -2 19 1 4 3 -2 6 -13 5 -11 0 -14 -3 -6 -6z"/>
<path d="M1600 2159 c0 -84 -4 -114 -15 -125 -36 -36 -138 -69 -276 -89 l-36
-5 9 -63 c10 -71 25 -107 45 -107 8 0 12 -3 10 -7 -3 -5 100 -7 228 -6 193 1
238 4 264 17 25 13 32 14 36 4 7 -22 30 -707 27 -800 l-3 -87 55 -16 c51 -15
61 -15 168 5 202 37 268 56 268 79 0 14 -52 31 -136 45 -43 7 -94 20 -112 30
-34 17 -34 18 -28 74 29 269 52 1009 34 1073 -7 23 -16 28 -70 38 -48 9 -432
51 -463 51 -3 0 -5 -50 -5 -111z"/>
<path d="M3892 1932 c-72 -72 -139 -190 -148 -260 -5 -35 -4 -36 10 -17 58 77
75 96 107 117 20 12 48 44 63 69 14 25 32 52 41 59 8 7 15 21 15 32 0 10 4 17
8 14 4 -2 14 0 22 6 12 8 11 9 -4 4 -13 -5 -17 -2 -12 9 3 8 2 14 -2 14 -20
-3 -33 2 -27 11 16 26 -12 4 -73 -58z m67 41 c-3 -21 2 -26 12 -13 9 13 10 13
6 0 -2 -8 -10 -15 -18 -15 -8 0 -14 -9 -13 -23 1 -13 -1 -20 -5 -17 -3 4 -6
10 -6 13 0 4 -4 13 -8 20 -6 8 -4 11 4 10 7 -2 14 3 15 10 2 19 4 22 9 22 3 0
4 -3 4 -7z"/>
<path d="M4015 1991 c-3 -5 -2 -12 3 -15 5 -3 9 1 9 9 0 17 -3 19 -12 6z"/>
<path d="M3270 1936 c0 -2 8 -10 18 -17 15 -13 16 -12 3 4 -13 16 -21 21 -21
13z"/>
<path d="M3337 1868 c7 -8 10 -18 6 -21 -3 -4 1 -7 11 -7 9 0 15 -4 12 -9 -7
-11 72 -161 83 -161 5 0 25 -23 45 -52 20 -29 36 -49 36 -45 0 34 -99 239
-122 254 -6 3 -8 1 -5 -4 4 -6 0 -13 -8 -17 -8 -3 -17 0 -21 6 -4 7 -3 8 5 4
8 -5 8 -1 0 16 -6 13 -20 30 -32 38 -19 12 -20 11 -10 -2z"/>
<path d="M3360 1549 c-66 -18 -67 -19 -46 -34 19 -14 123 -32 132 -22 9 9 -26
67 -39 66 -6 0 -28 -5 -47 -10z"/>
<path d="M3856 1535 c-3 -9 -6 -21 -6 -26 0 -10 31 -12 54 -3 20 8 21 34 2 34
-8 0 -21 3 -29 6 -8 3 -17 -2 -21 -11z"/>
<path d="M845 894 c-235 -29 -217 -23 -237 -77 -10 -26 -14 -47 -10 -47 4 0
21 16 37 34 l30 35 170 17 c94 9 172 18 174 20 2 2 1 10 -2 19 -7 17 -14 17
-162 -1z"/>
<path d="M1089 884 c-14 -35 -27 -188 -17 -212 4 -9 7 10 7 43 1 33 10 82 20
110 22 57 -7 53 225 35 71 -6 134 -10 141 -10 6 0 19 -16 28 -35 11 -23 24
-35 38 -35 17 0 19 4 13 23 -21 67 -11 63 -166 81 -285 33 -276 33 -289 0z"/>
</g>
</svg>
