<?xml version="1.0" standalone="no"?>
<!DOCTYPE svg PUBLIC "-//W3C//DTD SVG 20010904//EN"
 "http://www.w3.org/TR/2001/REC-SVG-20010904/DTD/svg10.dtd">
<svg version="1.0" xmlns="http://www.w3.org/2000/svg"
 width="604.000000pt" height="413.000000pt" viewBox="0 0 604.000000 413.000000"
 preserveAspectRatio="xMidYMid meet">

<g transform="translate(0.000000,413.000000) scale(0.100000,-0.100000)"
fill="#000000" stroke="none">
<path d="M1826 3194 c-14 -14 -16 -94 -16 -737 0 -638 2 -725 16 -745 15 -22
18 -22 255 -22 153 0 239 -4 239 -10 0 -7 233 -10 680 -10 447 0 680 3 680 10
0 6 91 10 253 10 233 0 255 1 270 18 15 17 17 67 17 520 0 427 -2 502 -14 502
-8 0 -17 -12 -20 -27 -4 -16 -6 -217 -5 -448 0 -231 0 -426 0 -432 -1 -10
-242 -13 -1171 -13 l-1170 0 0 660 0 660 810 0 810 0 0 40 0 40 -809 0 c-723
0 -811 -2 -825 -16z"/>
<path d="M4105 2990 c10 -11 20 -20 23 -20 3 0 -3 9 -13 20 -10 11 -20 20 -23
20 -3 0 3 -9 13 -20z"/>
<path d="M3734 2978 l-19 -23 25 20 c14 11 27 21 29 22 2 2 0 3 -6 3 -5 0 -18
-10 -29 -22z"/>
<path d="M4165 2940 c10 -11 20 -20 23 -20 3 0 -3 9 -13 20 -10 11 -20 20 -23
20 -3 0 3 -9 13 -20z"/>
<path d="M3659 2913 l-24 -28 28 24 c25 23 32 31 24 31 -2 0 -14 -12 -28 -27z"/>
<path d="M4230 2885 c13 -14 26 -25 28 -25 3 0 -5 11 -18 25 -13 14 -26 25
-28 25 -3 0 5 -11 18 -25z"/>
<path d="M1380 2845 l-5 -50 -45 40 -45 39 48 -50 47 -50 -2 -204 -3 -204 -42
65 c-24 35 -43 60 -43 56 0 -4 17 -34 37 -65 20 -31 42 -68 50 -82 11 -22 13
-2 13 145 l0 169 48 50 c26 27 36 42 24 33 -13 -8 -30 -25 -38 -36 -9 -12 -19
-21 -24 -21 -5 0 -11 48 -12 108 -2 73 -5 91 -8 57z"/>
<path d="M1606 2683 c27 -63 27 -67 -15 -158 -23 -49 -40 -93 -38 -99 2 -5 13
14 25 41 19 44 28 54 67 69 25 9 48 21 51 26 3 4 -13 1 -36 -8 -22 -9 -43 -14
-46 -12 -2 3 11 41 31 83 19 43 34 83 32 89 -2 5 -11 -10 -21 -34 l-17 -44
-19 42 c-11 23 -22 42 -25 42 -3 0 2 -17 11 -37z"/>
<path d="M1130 2512 l31 -64 -33 6 -33 6 35 -14 c51 -21 52 -20 30 24 -11 22
-19 50 -17 62 2 13 2 17 -1 9 -3 -11 -9 -9 -24 10 -12 15 -7 0 12 -39z"/>
<path d="M1970 2415 c0 -13 22 -15 135 -15 113 0 135 2 135 15 0 13 -22 15
-135 15 -113 0 -135 -2 -135 -15z"/>
<path d="M1186 2407 c3 -10 9 -15 12 -12 3 3 0 11 -7 18 -10 9 -11 8 -5 -6z"/>
<path d="M1438 2310 c-45 -39 -47 -39 -51 -18 -2 13 -4 -11 -4 -52 0 -43 2
-56 4 -30 4 40 10 51 56 92 64 58 60 63 -5 8z"/>
<path d="M1540 2240 c-21 -7 -21 -8 -5 -9 11 0 27 4 35 9 18 11 5 11 -30 0z"/>
<path d="M1218 2213 c7 -3 16 -2 19 1 4 3 -2 6 -13 5 -11 0 -14 -3 -6 -6z"/>
<path d="M1970 2165 c0 -13 22 -15 135 -15 113 0 135 2 135 15 0 13 -22 15
-135 15 -113 0 -135 -2 -135 -15z"/>
<path d="M1973 2078 c3 -10 38 -13 132 -13 94 0 129 3 133 13 3 9 -28 12 -133
12 -105 0 -136 -3 -132 -12z"/>
<path d="M1624 1913 c-20 -82 -117 -221 -179 -257 -41 -24 -52 -26 -169 -26
-105 0 -126 -2 -126 -15 0 -13 31 -15 215 -15 180 0 215 2 215 14 0 8 6 21 14
28 12 13 27 101 40 246 5 56 0 68 -10 25z"/>
<path d="M1906 1554 c-12 -30 -5 -34 58 -34 49 0 65 4 70 16 12 30 5 34 -58
34 -49 0 -65 -4 -70 -16z"/>
<path d="M2066 1554 c-12 -30 -5 -34 59 -34 36 0 65 4 65 9 0 5 3 16 6 25 5
14 -4 16 -59 16 -50 0 -66 -4 -71 -16z"/>
<path d="M2216 1554 c-12 -30 -5 -34 59 -34 36 0 65 4 65 9 0 5 3 16 6 25 5
14 -4 16 -59 16 -50 0 -66 -4 -71 -16z"/>
<path d="M2377 1563 c-4 -3 -7 -15 -7 -25 0 -16 9 -18 64 -18 60 0 64 1 68 25
5 24 4 25 -57 25 -34 0 -65 -3 -68 -7z"/>
<path d="M2530 1561 c0 -5 -3 -16 -6 -25 -5 -14 4 -16 59 -16 50 0 66 4 71 16
12 30 5 34 -59 34 -36 0 -65 -4 -65 -9z"/>
<path d="M2687 1563 c-4 -3 -7 -15 -7 -25 0 -16 9 -18 65 -18 36 0 65 4 65 9
0 5 3 16 6 25 5 14 -4 16 -58 16 -36 0 -68 -3 -71 -7z"/>
<path d="M2837 1564 c-4 -4 -7 -16 -7 -26 0 -17 7 -19 68 -16 59 3 67 5 67 23
0 17 -8 20 -60 23 -34 2 -64 0 -68 -4z"/>
<path d="M2990 1545 c0 -24 2 -25 65 -25 63 0 65 1 65 25 0 24 -2 25 -65 25
-63 0 -65 -1 -65 -25z"/>
<path d="M3150 1545 c0 -24 2 -25 66 -25 62 0 65 1 62 23 -3 20 -9 22 -65 25
-62 3 -63 2 -63 -23z"/>
<path d="M3302 1548 c3 -21 9 -23 66 -26 61 -3 62 -2 62 23 0 24 -2 25 -66 25
-62 0 -65 -1 -62 -22z"/>
<path d="M3460 1545 c0 -24 2 -25 65 -25 63 0 65 1 65 25 0 24 -2 25 -65 25
-63 0 -65 -1 -65 -25z"/>
<path d="M3610 1561 c0 -34 13 -41 76 -41 63 0 70 4 58 34 -5 12 -21 16 -70
16 -35 0 -64 -4 -64 -9z"/>
<path d="M3760 1561 c0 -34 13 -41 77 -41 55 0 64 2 59 16 -3 9 -6 20 -6 25 0
5 -29 9 -65 9 -36 0 -65 -4 -65 -9z"/>
<path d="M3919 1548 c8 -22 15 -23 110 -26 100 -3 107 0 95 32 -5 13 -24 16
-110 16 -103 0 -103 0 -95 -22z"/>
<path d="M1886 1494 c-12 -31 -4 -34 99 -34 58 0 105 4 105 9 0 5 3 16 6 25 5
14 -7 16 -99 16 -86 0 -106 -3 -111 -16z"/>
<path d="M2126 1494 c-12 -30 -5 -34 58 -34 49 0 65 4 70 16 12 30 5 34 -58
34 -49 0 -65 -4 -70 -16z"/>
<path d="M2287 1503 c-4 -3 -7 -15 -7 -25 0 -16 9 -18 64 -18 63 0 76 7 76 41
0 10 -123 13 -133 2z"/>
<path d="M2440 1485 c0 -24 2 -25 65 -25 63 0 65 1 65 25 0 24 -2 25 -65 25
-63 0 -65 -1 -65 -25z"/>
<path d="M2600 1485 c0 -24 2 -25 65 -25 63 0 65 1 65 25 0 24 -2 25 -65 25
-63 0 -65 -1 -65 -25z"/>
<path d="M2760 1485 c0 -24 2 -25 65 -25 63 0 65 1 65 25 0 24 -2 25 -65 25
-63 0 -65 -1 -65 -25z"/>
<path d="M2920 1501 c0 -5 -3 -16 -6 -25 -5 -14 4 -16 65 -16 69 0 71 1 71 25
0 24 -2 25 -65 25 -36 0 -65 -4 -65 -9z"/>
<path d="M3070 1485 c0 -24 2 -25 65 -25 63 0 65 1 65 25 0 24 -2 25 -65 25
-63 0 -65 -1 -65 -25z"/>
<path d="M3230 1485 c0 -24 2 -25 69 -25 67 0 68 0 63 25 -4 24 -8 25 -68 25
-62 0 -64 -1 -64 -25z"/>
<path d="M3390 1485 c0 -24 2 -25 66 -25 62 0 65 1 62 23 -3 20 -9 22 -65 25
-62 3 -63 2 -63 -23z"/>
<path d="M3540 1501 c0 -34 13 -41 76 -41 63 0 70 4 58 34 -5 12 -21 16 -70
16 -35 0 -64 -4 -64 -9z"/>
<path d="M3704 1494 c3 -9 6 -20 6 -25 0 -5 29 -9 65 -9 64 0 71 4 59 34 -5
12 -21 16 -71 16 -55 0 -64 -2 -59 -16z"/>
<path d="M3859 1488 c7 -20 16 -23 76 -26 59 -3 67 -1 61 13 -3 9 -6 21 -6 26
0 5 -31 9 -70 9 -68 0 -69 -1 -61 -22z"/>
<path d="M4010 1504 c0 -3 5 -14 10 -25 9 -16 22 -19 75 -19 69 0 71 1 55 31
-9 16 -22 19 -75 19 -36 0 -65 -3 -65 -6z"/>
<path d="M1860 1424 c-6 -14 -10 -27 -10 -30 0 -2 58 -4 129 -4 125 0 129 1
135 23 3 12 6 25 6 30 0 4 -56 7 -125 7 -125 0 -125 0 -135 -26z"/>
<path d="M2146 1434 c-15 -39 -8 -44 59 -44 36 0 65 3 65 8 0 4 3 17 6 30 6
21 4 22 -59 22 -50 0 -66 -4 -71 -16z"/>
<path d="M2306 1434 c-15 -40 -9 -45 62 -42 65 3 67 4 70 31 3 27 3 27 -61 27
-50 0 -66 -4 -71 -16z"/>
<path d="M2470 1436 c0 -8 -3 -21 -6 -30 -5 -14 4 -16 65 -16 l71 0 0 30 0 30
-65 0 c-49 0 -65 -3 -65 -14z"/>
<path d="M2637 1443 c-4 -3 -7 -17 -7 -30 0 -22 4 -23 64 -23 60 0 64 1 68 25
3 13 3 27 0 30 -8 7 -117 6 -125 -2z"/>
<path d="M2797 1444 c-4 -4 -7 -18 -7 -31 0 -22 3 -23 71 -23 l70 0 -3 28 c-3
26 -6 27 -63 30 -34 2 -64 0 -68 -4z"/>
<path d="M2954 1435 c-14 -34 3 -45 71 -45 l65 0 0 30 0 30 -65 0 c-49 0 -67
-4 -71 -15z"/>
<path d="M3110 1420 l0 -30 70 0 c72 0 79 5 64 44 -5 12 -21 16 -70 16 l-64 0
0 -30z"/>
<path d="M3272 1423 c3 -27 5 -28 71 -31 l68 -3 -3 28 c-3 27 -5 28 -71 31
l-68 3 3 -28z"/>
<path d="M3432 1423 c3 -27 5 -28 71 -31 l68 -3 -3 28 c-3 27 -5 28 -71 31
l-68 3 3 -28z"/>
<path d="M3594 1428 c3 -13 6 -26 6 -30 0 -5 29 -8 65 -8 67 0 74 5 59 44 -5
12 -21 16 -71 16 -63 0 -65 -1 -59 -22z"/>
<path d="M3754 1428 c3 -13 6 -26 6 -30 0 -5 30 -8 66 -8 l65 0 -3 28 c-3 26
-5 27 -72 30 -67 3 -68 3 -62 -20z"/>
<path d="M3920 1436 c0 -44 7 -46 136 -46 128 0 134 2 114 41 -10 17 -22 19
-130 19 -97 0 -120 -3 -120 -14z"/>
<path d="M667 1343 c-70 -42 -127 -82 -127 -88 0 -11 453 -265 498 -279 18 -6
51 9 152 70 80 47 130 83 130 93 0 10 -39 37 -102 71 -193 104 -253 137 -319
173 -36 20 -74 37 -85 37 -11 0 -77 -35 -147 -77z"/>
<path d="M1831 1358 l-8 -23 175 -3 c96 -1 176 -1 177 0 1 2 6 13 9 26 l7 22
-176 0 c-173 0 -176 0 -184 -22z"/>
<path d="M2208 1355 c-5 -25 -4 -25 62 -25 53 0 69 4 74 16 12 31 5 34 -63 34
-65 0 -69 -1 -73 -25z"/>
<path d="M2376 1364 c-12 -31 -5 -34 64 -34 68 0 70 1 70 25 0 24 -2 25 -64
25 -49 0 -65 -4 -70 -16z"/>
<path d="M2540 1355 c0 -24 2 -25 64 -25 49 0 65 4 70 16 12 31 5 34 -64 34
-68 0 -70 -1 -70 -25z"/>
<path d="M2707 1373 c-4 -3 -7 -15 -7 -25 0 -16 9 -18 70 -18 68 0 70 1 70 25
0 24 -2 25 -63 25 -35 0 -67 -3 -70 -7z"/>
<path d="M2870 1355 c0 -24 2 -25 70 -25 68 0 70 1 70 25 0 24 -2 25 -70 25
-68 0 -70 -1 -70 -25z"/>
<path d="M3030 1355 c0 -24 2 -25 70 -25 68 0 70 1 70 25 0 24 -2 25 -70 25
-68 0 -70 -1 -70 -25z"/>
<path d="M3200 1355 c0 -24 2 -25 71 -25 61 0 70 2 65 16 -3 9 -6 20 -6 25 0
5 -29 9 -65 9 -63 0 -65 -1 -65 -25z"/>
<path d="M3360 1355 c0 -24 2 -25 70 -25 68 0 70 1 70 25 0 24 -2 25 -70 25
-68 0 -70 -1 -70 -25z"/>
<path d="M3528 1355 c4 -24 8 -25 73 -25 68 0 75 3 63 34 -5 12 -21 16 -74 16
-66 0 -67 0 -62 -25z"/>
<path d="M3690 1355 c0 -25 13 -30 70 -26 10 0 11 -1 3 -5 -7 -3 -13 -12 -13
-20 0 -11 15 -14 61 -14 44 0 60 3 57 13 -3 6 -14 13 -24 15 -16 2 -20 9 -16
32 l4 30 -71 0 c-69 0 -71 -1 -71 -25z"/>
<path d="M3850 1371 c0 -25 14 -41 36 -41 17 0 24 -6 24 -20 0 -18 7 -20 71
-20 66 0 71 1 66 20 -5 18 -1 20 46 19 29 -1 40 -4 25 -6 -16 -2 -28 -11 -28
-19 0 -11 15 -14 60 -14 56 0 75 10 49 26 -8 5 -8 9 1 14 9 6 9 13 1 29 -11
20 -19 21 -181 21 -97 0 -170 -4 -170 -9z"/>
<path d="M1803 1280 l-11 -30 72 0 c70 0 72 0 83 30 l11 30 -72 0 c-70 0 -72
0 -83 -30z"/>
<path d="M1980 1284 c-6 -14 -10 -27 -10 -30 0 -2 31 -4 69 -4 68 0 69 1 80
30 l10 30 -70 0 c-65 0 -70 -2 -79 -26z"/>
<path d="M2146 1288 c-3 -13 -6 -26 -6 -30 0 -5 31 -8 69 -8 54 0 70 4 75 16
15 39 8 44 -63 44 -63 0 -69 -2 -75 -22z"/>
<path d="M2316 1288 c-3 -13 -6 -27 -6 -31 0 -4 42 -6 93 -5 l92 3 3 28 3 27
-89 0 c-85 0 -90 -1 -96 -22z"/>
<path d="M2530 1296 c0 -8 -3 -21 -6 -30 -6 -14 34 -16 408 -16 l415 0 -5 30
-4 30 -404 0 c-342 0 -404 -2 -404 -14z"/>
<path d="M3360 1296 c0 -42 10 -46 101 -46 l89 0 0 30 0 30 -95 0 c-75 0 -95
-3 -95 -14z"/>
<path d="M3582 1283 c3 -27 4 -28 75 -31 l71 -3 -7 28 c-7 27 -10 28 -75 31
l-67 3 3 -28z"/>
<path d="M3752 1268 c3 -8 29 -14 71 -16 55 -2 67 0 67 13 0 12 -14 15 -71 15
-52 0 -70 -3 -67 -12z"/>
<path d="M3922 1268 c3 -8 29 -14 71 -16 55 -2 67 0 67 13 0 12 -14 15 -71 15
-52 0 -70 -3 -67 -12z"/>
<path d="M4092 1268 c3 -8 29 -14 71 -16 55 -2 67 0 67 13 0 12 -14 15 -71 15
-52 0 -70 -3 -67 -12z"/>
<path d="M1296 1081 c-4 -7 -5 -15 -2 -18 9 -9 19 4 14 18 -4 11 -6 11 -12 0z"/>
<path d="M1237 1046 c-10 -8 -14 -16 -10 -19 5 -3 20 3 33 14 17 12 20 19 10
18 -8 0 -23 -6 -33 -13z"/>
<path d="M1168 1007 c-21 -12 -38 -28 -38 -35 0 -9 13 -5 40 10 22 13 40 29
40 36 0 15 3 16 -42 -11z"/>
<path d="M4547 946 c-15 -12 -260 -14 -1525 -14 -921 0 -1514 4 -1524 9 -15 8
-18 5 -18 -15 0 -60 -112 -56 1539 -56 1424 0 1509 1 1523 18 11 12 32 74 24
72 0 0 -9 -7 -19 -14z"/>
</g>
</svg>
